<svg width="363" height="363" viewBox="0 0 363 363" fill="none" xmlns="http://www.w3.org/2000/svg">
<rect width="363" height="363" rx="90" fill="#D9D9D9"/>
<rect width="363" height="363" rx="90" fill="#FDABF7"/>
<path d="M271.644 98.0024C271.772 105.367 271.859 112.732 271.919 120.097C271.944 122.6 271.978 125.102 272.022 127.604C272.083 131.214 272.111 134.822 272.133 138.432C272.158 139.54 272.184 140.647 272.211 141.789C272.214 150.103 270.494 156.901 264.683 163.092C257.999 169.312 250.494 173.454 241.832 176.19C241.051 176.444 240.27 176.698 239.465 176.96C233.604 178.818 227.752 180.222 221.644 181.002C221.644 181.332 221.644 181.662 221.644 182.002C222.588 182.173 223.532 182.343 224.504 182.518C240.962 185.625 257.863 190.104 268.644 204.002C272.608 209.867 272.027 215.815 271.937 222.62C271.933 223.832 271.929 225.044 271.924 226.293C271.908 230.155 271.87 234.016 271.832 237.877C271.817 240.5 271.803 243.122 271.791 245.745C271.758 252.164 271.708 258.583 271.644 265.002C268.763 264.854 265.881 264.703 263 264.549C262.189 264.508 261.378 264.466 260.543 264.424C242.962 263.478 223.31 258.753 211.019 245.315C207.504 241.14 205.402 237.906 205.37 232.361C205.36 231.433 205.35 230.505 205.34 229.549C205.339 228.538 205.339 227.527 205.338 226.486C205.33 225.415 205.321 224.345 205.313 223.242C205.289 219.699 205.28 216.155 205.273 212.612C205.264 210.148 205.255 207.684 205.246 205.22C205.229 200.052 205.222 194.884 205.219 189.716C205.213 183.1 205.176 176.485 205.13 169.87C205.1 164.779 205.093 159.689 205.092 154.598C205.088 152.159 205.075 149.721 205.055 147.283C205.028 143.867 205.032 140.452 205.045 137.037C205.03 136.034 205.015 135.031 205 133.998C205.082 126.104 207.55 121.531 212.679 115.682C228.984 101.169 250.526 97.8975 271.644 98.0024Z" fill="#300149"/>
<path d="M91.4532 98.0256C93.0383 98.0184 94.6234 98.0134 96.2086 98.0092C97.0913 98.0062 97.974 98.0031 98.8835 98C118.741 98.1975 137.598 104.336 152.359 117.779C157.743 123.554 157.899 128.108 157.889 135.732C157.899 136.81 157.909 137.889 157.92 139C157.948 142.566 157.954 146.132 157.957 149.697C157.967 152.18 157.977 154.662 157.987 157.145C158.005 162.35 158.011 167.555 158.009 172.76C158.007 179.419 158.05 186.077 158.101 192.736C158.135 197.865 158.141 202.993 158.139 208.122C158.143 210.576 158.156 213.031 158.179 215.485C158.209 218.925 158.2 222.362 158.182 225.802C158.207 227.313 158.207 227.313 158.233 228.854C158.126 236.945 155.285 241.944 149.805 247.781C135.253 261.892 110.842 265.195 91.4532 265.026C91.3514 257.642 91.2815 250.26 91.2335 242.876C91.2134 240.367 91.1862 237.858 91.1514 235.349C91.1026 231.732 91.0802 228.115 91.0626 224.498C91.0419 223.385 91.0213 222.272 91 221.126C90.9977 213.137 92.4712 207.16 97.1719 200.643C110.002 188.094 125.517 184.707 142.453 181.026C141.172 180.806 139.891 180.587 138.57 180.361C121.58 177.309 104.965 172.866 94.4532 158.026C90.9317 151.656 91.0613 145.921 91.1602 138.748C91.1645 137.582 91.1687 136.415 91.1731 135.213C91.1898 131.505 91.2275 127.797 91.2657 124.088C91.2807 121.567 91.2944 119.045 91.3067 116.524C91.3397 110.357 91.3898 104.192 91.4532 98.0256Z" fill="#300149"/>
<path d="M181.5 158C179.028 177.024 177.024 179.028 158 181.5C177.024 183.972 179.028 185.976 181.5 205C183.972 185.976 185.976 183.972 205 181.5C185.976 179.028 183.972 177.024 181.5 158Z" fill="#300149"/>
</svg>
